<svg width="774" height="873" viewBox="0 0 774 873" fill="none" xmlns="http://www.w3.org/2000/svg">
    <path d="M18.0935 358.295C18.0935 358.295 4.94363 337.052 1.90904 312.27C-1.12554 287.993 15.0589 285.97 15.0589 285.97" stroke="black" stroke-width="0.5" stroke-miterlimit="10" />
    <path d="M180.95 52.307C121.775 65.4569 58.5547 152.448 58.5547 152.448C16.0705 180.771 18.0935 220.727 18.0935 220.727C18.0935 220.727 -6.6889 265.74 3.42639 297.097" stroke="black" stroke-width="0.5" stroke-miterlimit="10" />
    <path d="M465.189 20.9496C465.189 20.9496 483.903 11.3401 567.354 52.307C650.299 93.2739 632.092 117.045 632.092 117.045C632.092 117.045 668.507 130.701 677.105 152.448C685.703 174.196 700.876 175.208 705.428 184.312C709.979 193.415 728.187 223.761 705.428 267.763C682.668 311.764 695.312 335.535 695.312 335.535" stroke="black" stroke-width="0.5" stroke-miterlimit="10" />
    <path d="M714.531 242.98C714.531 242.98 722.118 276.867 744.877 297.097C767.637 317.328 764.602 329.972 771.683 381.054C778.763 432.136 754.993 453.884 754.993 453.884C754.993 453.884 759.039 466.022 736.785 489.288C714.531 512.553 688.737 497.38 688.737 497.38L673.564 486.253" stroke="black" stroke-width="0.5" stroke-miterlimit="10" />
    <path d="M374.152 522.162C338.242 562.118 276.539 518.116 276.539 518.116C224.446 485.241 239.618 468.045 241.136 460.965" stroke="black" stroke-width="0.35" stroke-miterlimit="10" />
    <path d="M420.176 372.456C388.819 358.295 300.31 401.285 279.068 425.561C257.826 449.838 373.14 369.421 396.911 435.677C396.911 435.677 350.381 455.907 372.635 523.68C372.635 523.68 386.796 589.935 433.326 567.681C433.326 567.681 467.213 594.992 476.822 632.925C486.432 670.351 495.535 716.376 508.179 741.664C520.823 766.952 549.146 849.898 550.664 869.622C550.664 869.622 602.252 879.232 629.057 863.048C629.057 863.048 596.688 797.298 590.619 749.251C584.044 701.203 555.721 624.832 549.652 618.258C543.077 611.683 482.891 492.322 469.236 447.815C455.58 403.308 451.534 386.112 420.176 372.456Z" stroke="black" stroke-width="0.35" stroke-miterlimit="10" />
    <path d="M266.93 322.385C266.93 322.385 181.961 301.143 250.745 258.659C250.745 258.659 321.552 231.348 401.969 261.694C482.385 291.534 443.441 338.064 477.328 343.122C544.089 352.225 513.237 305.189 508.179 276.866C503.122 248.544 468.224 241.969 402.475 217.692C336.725 193.415 307.391 197.461 292.218 202.013C277.045 206.059 255.803 216.68 209.273 235.9C162.742 254.613 138.465 316.822 180.95 329.466C223.434 342.11 255.803 329.466 262.378 329.466C262.884 329.466 269.459 327.443 266.93 322.385Z" stroke="black" stroke-width="0.5" stroke-miterlimit="10" />
    <path d="M487.443 491.816C471.258 453.378 502.11 363.352 554.204 372.456C606.298 381.054 604.78 395.721 652.322 446.803C699.864 497.886 652.322 536.829 652.322 536.829C652.322 558.072 635.632 570.21 586.067 577.796C537.008 585.383 503.122 530.254 503.122 530.254L498.57 519.128L487.443 491.816Z" stroke="black" stroke-width="0.5" stroke-miterlimit="10" />
    <path d="M473.787 460.965C473.787 460.965 470.753 426.067 475.81 411.4C480.868 397.238 465.189 364.364 465.189 364.364C465.189 364.364 472.27 352.225 467.718 339.076" stroke="black" stroke-width="0.35" stroke-miterlimit="10" />
    <path d="M343.3 410.388C343.3 410.388 374.152 422.527 373.14 460.965" stroke="black" stroke-width="0.35" stroke-miterlimit="10" />
    <path d="M377.692 254.107C377.692 254.107 342.289 257.142 306.379 282.43C306.379 282.43 279.574 299.12 266.93 321.879" stroke="black" stroke-width="0.35" stroke-miterlimit="10" />
    <path d="M279.574 425.561C294.241 402.802 291.206 383.583 286.149 364.869C286.149 364.869 282.103 349.191 270.976 344.133C259.849 339.581 254.791 330.983 254.791 330.983" stroke="black" stroke-width="0.5" stroke-miterlimit="10" />
    <path d="M290.195 415.446C290.195 415.446 302.839 378.019 302.839 354.248C302.839 330.477 309.414 314.799 332.173 293.557C332.173 293.557 351.898 275.349 378.198 279.395C404.498 282.936 415.625 267.257 415.625 267.257" stroke="black" stroke-width="0.35" stroke-miterlimit="10" />
    <path d="M352.404 322.385C352.404 322.385 363.025 310.753 374.152 322.385C385.279 334.018 371.117 341.099 366.565 339.581C363.025 338.064 347.346 337.558 352.404 322.385Z" stroke="black" stroke-width="0.35" stroke-miterlimit="10" />
    <path d="M456.086 407.859C456.086 407.859 450.522 387.629 442.936 378.525C435.349 369.421 436.867 360.823 435.349 354.754C433.326 348.685 425.74 324.408 448.499 335.535C471.259 347.168 461.143 354.754 458.615 357.789C456.086 360.823 451.534 355.26 448.499 357.789C448.499 357.789 452.545 366.387 458.615 369.927C464.684 373.467 473.282 400.779 465.695 400.779C458.615 400.779 465.695 435.171 465.695 435.171" stroke="black" stroke-width="0.35" stroke-miterlimit="10" />
    <path d="M524.364 517.61C522.847 562.118 567.86 564.141 578.481 563.129C589.102 561.612 631.586 554.531 652.828 536.829C674.07 519.128 673.564 497.38 672.047 478.161C670.53 458.942 652.828 451.861 640.184 432.642C627.034 412.917 596.688 386.617 596.688 386.617C528.916 344.639 496.547 393.698 484.914 449.838C484.914 449.838 475.305 483.218 504.639 505.472L524.364 517.61Z" stroke="black" stroke-width="0.35" stroke-miterlimit="10" />
    <path d="M645.242 469.563C645.242 469.563 622.988 462.988 592.642 475.126C562.296 486.759 555.721 504.461 524.364 517.61" stroke="black" stroke-width="0.5" stroke-miterlimit="10" />
    <path d="M556.733 410.388C556.733 410.388 549.652 426.573 546.112 449.332C542.066 472.092 554.204 486.253 544.594 506.484" stroke="black" stroke-width="0.35" stroke-miterlimit="10" />
    <path d="M600.229 534.806C600.229 534.806 594.159 509.012 558.25 496.368" stroke="black" stroke-width="0.35" stroke-miterlimit="10" />
    <path d="M604.275 425.561C604.275 425.561 614.39 448.321 601.24 472.092" stroke="black" stroke-width="0.35" stroke-miterlimit="10" />
    <path d="M592.642 475.126C610.344 473.103 611.861 487.77 611.861 487.77" stroke="black" stroke-width="0.5" stroke-miterlimit="10" />
    <path d="M503.122 505.472L518.8 550.991" stroke="black" stroke-width="0.35" stroke-miterlimit="10" />
    <path d="M512.226 512.047L527.904 557.566" stroke="black" stroke-width="0.35" stroke-miterlimit="10" />
    <path d="M531.445 544.922L538.019 565.658" stroke="black" stroke-width="0.35" stroke-miterlimit="10" />
    <path d="M544.594 556.554L548.641 571.221" stroke="black" stroke-width="0.35" stroke-miterlimit="10" />
    <path d="M555.216 560.6L558.25 575.268" stroke="black" stroke-width="0.35" stroke-miterlimit="10" />
    <path d="M565.331 562.623L568.365 577.796" stroke="black" stroke-width="0.35" stroke-miterlimit="10" />
    <path d="M574.94 563.129L577.975 578.302" stroke="black" stroke-width="0.35" stroke-miterlimit="10" />
    <path d="M585.056 562.118L587.584 577.291" stroke="black" stroke-width="0.35" stroke-miterlimit="10" />
    <path d="M594.665 560.095L597.194 575.773" stroke="black" stroke-width="0.35" stroke-miterlimit="10" />
    <path d="M603.769 558.072L606.298 573.75" stroke="black" stroke-width="0.35" stroke-miterlimit="10" />
    <path d="M613.378 555.543L615.907 571.221" stroke="black" stroke-width="0.35" stroke-miterlimit="10" />
    <path d="M622.482 552.508L625.011 568.693" stroke="black" stroke-width="0.35" stroke-miterlimit="10" />
    <path d="M631.586 548.968L633.609 564.646" stroke="black" stroke-width="0.35" stroke-miterlimit="10" />
    <path d="M639.678 545.427L641.701 559.589" stroke="black" stroke-width="0.35" stroke-miterlimit="10" />
    <path d="M492.501 108.447C492.501 105.918 501.548 94.3909 498.57 85.6875C497.855 83.5981 496.088 82.8376 496.041 80.6298C495.984 77.9288 499.413 76.5612 499.538 74.6609C502.263 33.2464 489.68 33.3141 449.005 11.3401C405.509 -11.9251 337.737 11.3401 337.737 11.3401C277.045 5.2709 302.333 18.9265 269.964 20.9496C237.595 23.4784 241.641 36.1225 203.709 40.6744C165.777 45.2263 180.95 85.6875 180.95 85.6875" stroke="black" stroke-width="0.5" stroke-miterlimit="10" />
    <path d="M131.891 223.255C131.891 223.255 147.063 214.657 148.075 191.392C149.087 168.127 209.778 180.265 238.101 154.977C266.424 129.689 305.874 121.597 305.874 121.597" stroke="black" stroke-width="0.35" stroke-miterlimit="10" />
    <path d="M600.229 328.454C600.229 328.454 633.103 321.374 632.597 267.257C632.597 267.257 634.115 249.555 672.553 223.255" stroke="black" stroke-width="0.35" stroke-miterlimit="10" />
    <path d="M480.868 189.369C480.868 189.369 485.926 189.369 496.041 197.967C520.318 224.267 554.71 225.279 548.641 159.023C548.641 159.023 530.433 114.01 575.446 111.481" stroke="black" stroke-width="0.5" stroke-miterlimit="10" />
    <path d="M705.933 410.388C705.933 410.388 713.014 459.447 754.487 453.884" stroke="black" stroke-width="0.5" stroke-miterlimit="10" />
    <path d="M78.7853 315.81C78.7853 315.81 94.464 330.983 113.177 322.385C113.177 322.385 166.788 394.71 204.721 382.065C204.721 382.065 171.846 412.411 132.396 378.019C92.9468 344.133 74.7392 355.26 74.7392 355.26C57.0374 355.766 27.7031 344.133 18.0936 358.295C12.5302 366.893 14.0474 384.594 30.2319 419.492C73.2219 512.553 165.271 451.355 189.548 459.447C213.824 467.54 263.895 457.424 263.895 457.424C263.895 457.424 287.666 453.884 280.08 429.607" stroke="black" stroke-width="0.5" stroke-miterlimit="10" />
    <path d="M59.5662 220.221C59.5662 220.221 93.9582 234.382 101.039 198.473C101.039 198.473 107.614 159.023 148.581 191.392" stroke="black" stroke-width="0.35" stroke-miterlimit="10" />
    <path d="M639.678 220.221C639.678 220.221 612.873 227.807 579.492 242.474C546.112 257.647 548.64 185.323 548.64 185.323" stroke="black" stroke-width="0.5" stroke-miterlimit="10" />
    <path d="M389.325 85.6875C375.39 113.557 355.456 109.432 341.001 100.86" stroke="black" stroke-width="0.5" stroke-miterlimit="10" />
    <path d="M423.211 74.5607C423.211 74.5607 419.671 104.907 377.186 100.86" stroke="black" stroke-width="0.5" stroke-miterlimit="10" />
    <path d="M400.452 149.92C400.452 149.92 427.257 140.816 442.936 159.023C456.757 175.074 468.224 151.437 465.695 156.494" stroke="black" stroke-width="0.35" stroke-miterlimit="10" />
    <path d="M357.967 165.093C357.967 165.093 387.807 157.506 415.119 172.679C442.43 187.852 458.615 163.069 458.615 163.069" stroke="black" stroke-width="0.35" stroke-miterlimit="10" />
    <path d="M645.242 361.329C645.242 361.329 666.484 383.583 685.197 383.583C685.197 383.583 671.541 403.308 685.197 434.665" stroke="black" stroke-width="0.5" stroke-miterlimit="10" />
    <path d="M238.607 442.251C238.607 442.251 216.859 439.723 206.238 419.492C206.238 419.492 172.352 447.309 113.177 400.273C113.177 400.273 99.5217 385.1 73.7277 395.721" stroke="black" stroke-width="0.35" stroke-miterlimit="10" />
    <path d="M148.581 143.345C148.581 143.345 119.752 122.102 58.5547 152.448" stroke="black" stroke-width="0.5" stroke-miterlimit="10" />
    <path d="M524.364 425.561C524.364 425.561 519.306 435.171 524.364 448.826C529.421 462.482 541.56 462.988 547.629 481.195" stroke="black" stroke-width="0.35" stroke-miterlimit="10" />
    <path d="M570.388 501.932C570.388 501.932 591.125 500.414 615.907 518.116C615.907 518.116 626.528 526.208 633.609 528.737" stroke="black" stroke-width="0.35" stroke-miterlimit="10" />
    <path d="M622.482 468.045C622.482 468.045 636.644 465.011 636.138 453.378" stroke="black" stroke-width="0.5" stroke-miterlimit="10" />
    <path d="M512.226 438.205C512.226 438.205 516.777 445.792 524.364 448.321" stroke="black" stroke-width="0.35" stroke-miterlimit="10" />
    <path d="M520.318 457.424C520.318 457.424 527.904 462.482 532.962 460.965" stroke="black" stroke-width="0.35" stroke-miterlimit="10" />
    <path d="M526.893 453.378C526.893 453.378 532.456 441.24 531.95 438.205" stroke="black" stroke-width="0.35" stroke-miterlimit="10" />
    <path d="M538.019 465.517C538.019 465.517 539.031 454.896 534.985 448.321" stroke="black" stroke-width="0.35" stroke-miterlimit="10" />
    <path d="M592.642 428.596C592.642 428.596 603.263 440.228 608.321 443.769" stroke="black" stroke-width="0.35" stroke-miterlimit="10" />
    <path d="M615.907 434.665C615.907 434.665 611.355 447.815 608.321 448.826" stroke="black" stroke-width="0.35" stroke-miterlimit="10" />
    <path d="M622.482 448.826C622.482 448.826 613.378 457.93 606.298 458.942L596.688 448.826" stroke="black" stroke-width="0.35" stroke-miterlimit="10" />
    <path d="M606.298 523.174C606.298 523.174 599.217 514.07 596.182 506.989" stroke="black" stroke-width="0.35" stroke-miterlimit="10" />
    <path d="M619.448 531.266C619.448 531.266 615.907 525.197 615.907 517.61" stroke="black" stroke-width="0.35" stroke-miterlimit="10" />
    <path d="M591.125 504.966C591.125 504.966 599.723 499.909 606.298 499.909" stroke="black" stroke-width="0.35" stroke-miterlimit="10" />
    <path d="M609.838 513.564C609.838 513.564 614.896 509.518 623.999 506.484" stroke="black" stroke-width="0.35" stroke-miterlimit="10" />
    <path d="M622.482 522.668C622.482 522.668 632.597 521.151 640.69 522.668" stroke="black" stroke-width="0.35" stroke-miterlimit="10" />
    <path d="M548.135 487.77C548.135 487.77 563.308 463.494 566.848 445.792C566.848 445.792 575.446 435.677 578.481 434.665" stroke="black" stroke-width="0.35" stroke-miterlimit="10" />
    <path d="M563.308 425.561C563.308 425.561 564.319 440.228 566.848 446.298" stroke="black" stroke-width="0.35" stroke-miterlimit="10" />
    <path d="M556.733 445.792C556.733 445.792 556.227 457.424 559.767 465.517C562.296 471.586 577.469 458.436 577.469 458.436" stroke="black" stroke-width="0.35" stroke-miterlimit="10" />
    <path d="M555.216 475.632C555.216 475.632 563.308 478.161 570.894 475.632" stroke="black" stroke-width="0.35" stroke-miterlimit="10" />
    <path d="M629.563 481.195C629.563 481.195 619.953 488.276 609.838 481.701" stroke="black" stroke-width="0.35" stroke-miterlimit="10" />
    <path d="M554.71 415.446C563.308 404.825 574.94 397.744 574.94 397.744" stroke="black" stroke-width="0.35" stroke-miterlimit="10" />
    <path d="M562.802 388.64C562.802 388.64 569.377 396.733 564.825 405.836" stroke="black" stroke-width="0.35" stroke-miterlimit="10" />
    <path d="M559.767 410.388C571.906 405.836 578.481 410.388 578.481 410.388" stroke="black" stroke-width="0.35" stroke-miterlimit="10" />
    <path d="M623.999 483.724C630.574 483.218 639.678 492.828 639.678 492.828" stroke="black" stroke-width="0.35" stroke-miterlimit="10" />
    <path d="M568.365 538.852C568.365 538.852 575.446 520.645 567.354 500.414" stroke="black" stroke-width="0.35" stroke-miterlimit="10" />
    <path d="M579.492 542.393C579.492 542.393 576.963 534.301 570.388 531.266" stroke="black" stroke-width="0.35" stroke-miterlimit="10" />
    <path d="M558.25 531.266C558.25 531.266 566.342 533.289 570.388 527.22" stroke="black" stroke-width="0.35" stroke-miterlimit="10" />
    <path d="M579.492 527.22C579.492 527.22 575.446 521.151 571.4 517.61" stroke="black" stroke-width="0.35" stroke-miterlimit="10" />
    <path d="M558.25 517.61C558.25 517.61 564.319 512.047 569.883 509.518" stroke="black" stroke-width="0.35" stroke-miterlimit="10" />
    <path d="M544.594 391.169C544.594 391.169 559.262 395.721 552.687 422.527" stroke="black" stroke-width="0.35" stroke-miterlimit="10" />
    <path d="M541.56 415.446C541.56 415.446 546.617 425.055 550.664 428.596" stroke="black" stroke-width="0.5" stroke-miterlimit="10" />
    <path d="M632.598 502.437C632.598 502.437 629.057 495.863 629.563 485.241" stroke="black" stroke-width="0.35" stroke-miterlimit="10" />
    <path d="M536.502 483.724C536.502 483.724 545.1 482.713 548.135 490.805" stroke="black" stroke-width="0.5" stroke-miterlimit="10" />
</svg>
